<?xml version="1.0" encoding="UTF-8" standalone="no"?>
<!-- Created with Inkscape (http://www.inkscape.org/) -->

<svg
   width="54.873569mm"
   height="23.860954mm"
   viewBox="0 0 54.873569 23.860954"
   version="1.1"
   id="svg1"
   sodipodi:docname="LogoINEACDMX_withe.svg"
   inkscape:version="1.3.2 (091e20e, 2023-11-25, custom)"
   xmlns:inkscape="http://www.inkscape.org/namespaces/inkscape"
   xmlns:sodipodi="http://sodipodi.sourceforge.net/DTD/sodipodi-0.dtd"
   xmlns="http://www.w3.org/2000/svg"
   xmlns:svg="http://www.w3.org/2000/svg">
  <sodipodi:namedview
     id="namedview1"
     pagecolor="#ffffff"
     bordercolor="#000000"
     borderopacity="0.25"
     inkscape:showpageshadow="2"
     inkscape:pageopacity="0.0"
     inkscape:pagecheckerboard="0"
     inkscape:deskcolor="#d1d1d1"
     inkscape:document-units="mm"
     inkscape:zoom="3.886282"
     inkscape:cx="103.69808"
     inkscape:cy="45.158843"
     inkscape:window-width="1920"
     inkscape:window-height="1009"
     inkscape:window-x="-8"
     inkscape:window-y="-8"
     inkscape:window-maximized="1"
     inkscape:current-layer="layer1" />
  <defs
     id="defs1">
    <clipPath
       clipPathUnits="userSpaceOnUse"
       id="clipPath639">
      <path
         d="M 0.122,0 H 1199.999 V 186.231 H 0.122 Z"
         transform="translate(-763.23744,-85.148927)"
         id="path639" />
    </clipPath>
    <clipPath
       clipPathUnits="userSpaceOnUse"
       id="clipPath641">
      <path
         d="M 0.122,0 H 1199.999 V 186.231 H 0.122 Z"
         transform="translate(-766.92519,-89.592377)"
         id="path641" />
    </clipPath>
    <clipPath
       clipPathUnits="userSpaceOnUse"
       id="clipPath643">
      <path
         d="M 0.122,0 H 1199.999 V 186.231 H 0.122 Z"
         transform="translate(-763.11632,-108.03923)"
         id="path643" />
    </clipPath>
    <clipPath
       clipPathUnits="userSpaceOnUse"
       id="clipPath645">
      <path
         d="M 0.122,0 H 1199.999 V 186.231 H 0.122 Z"
         id="path645" />
    </clipPath>
    <clipPath
       clipPathUnits="userSpaceOnUse"
       id="clipPath647">
      <path
         d="M 0.122,0 H 1199.999 V 186.231 H 0.122 Z"
         transform="translate(-733.28302,-107.01158)"
         id="path647" />
    </clipPath>
    <clipPath
       clipPathUnits="userSpaceOnUse"
       id="clipPath651">
      <path
         d="M 0.122,0 H 1199.999 V 186.231 H 0.122 Z"
         transform="translate(-749.60052,-88.225502)"
         id="path651" />
    </clipPath>
    <clipPath
       clipPathUnits="userSpaceOnUse"
       id="clipPath653">
      <path
         d="M 0.122,0 H 1199.999 V 186.231 H 0.122 Z"
         transform="translate(-741.89592,-93.888227)"
         id="path653" />
    </clipPath>
    <rect
       x="601.1712"
       y="994.99402"
       width="720.84882"
       height="136.37682"
       id="rect664" />
    <clipPath
       clipPathUnits="userSpaceOnUse"
       id="clipPath649">
      <path
         d="M 0.122,0 H 1199.999 V 186.231 H 0.122 Z"
         transform="translate(-716.96532,-88.225502)"
         id="path649" />
    </clipPath>
  </defs>
  <g
     inkscape:label="Capa 1"
     inkscape:groupmode="layer"
     id="layer1"
     transform="translate(-78.895777,-115.44828)">
    <path
       id="path638"
       d="m 0,0 h 0.495 c 1.388,0 1.927,-0.44 1.927,-2.092 0,-1.497 -0.661,-2.135 -1.872,-2.135 H 0 Z m 0.815,-6.077 c 2.543,0 4.205,1.145 4.205,4.128 0,2.61 -1.585,3.798 -4.139,3.798 h -3.479 v -7.926 z m 11.889,0 v 1.85 H 8.686 v 1.244 h 3.27 v 1.849 H 8.686 V 0 H 12.55 V 1.849 H 6.088 v -7.926 z m 11.056,0 v 1.85 h -3.567 v 6.076 h -2.598 v -7.926 z m 4.899,6.198 c 1.145,0.033 1.585,-1.112 1.585,-2.191 0,-1.31 -0.44,-2.278 -1.563,-2.278 -1.244,0 -1.553,1.266 -1.553,2.278 0,1.002 0.353,2.191 1.531,2.191 m 0.022,1.938 c -2.466,0 -4.151,-1.619 -4.151,-4.107 0,-2.697 1.663,-4.238 4.151,-4.238 2.345,0 4.161,1.519 4.161,4.216 0,2.092 -1.332,4.129 -4.161,4.129 m 11.955,-2.51 c -0.187,1.387 -1.189,2.51 -3.391,2.51 -1.981,0 -3.434,-0.848 -3.434,-2.532 0,-3.028 4.557,-2.202 4.557,-3.402 0,-0.374 -0.429,-0.584 -1.079,-0.584 -0.253,0 -0.528,0.066 -0.737,0.199 -0.22,0.132 -0.374,0.341 -0.43,0.627 h -2.487 c 0.055,-1.431 1.42,-2.653 3.511,-2.653 2.18,0 3.71,0.892 3.71,2.73 0,2.884 -4.557,2.147 -4.557,3.336 0,0.286 0.253,0.451 0.825,0.451 0.254,0 0.485,-0.044 0.672,-0.143 0.187,-0.099 0.33,-0.264 0.374,-0.539 z m 9.239,-2.929 h -1.64 l 0.804,2.841 z m -2.433,-2.697 0.298,1.046 h 2.587 l 0.308,-1.046 h 2.587 l -2.84,7.926 H 47.74 L 44.899,-6.077 Z M 56.657,0 h 0.495 c 1.387,0 1.927,-0.44 1.927,-2.092 0,-1.497 -0.661,-2.135 -1.872,-2.135 h -0.55 z m 0.814,-6.077 c 2.543,0 4.206,1.145 4.206,4.128 0,2.61 -1.586,3.798 -4.14,3.798 h -3.478 v -7.926 z m 5.208,3.457 c 0,-2.73 1.365,-3.666 3.82,-3.666 2.631,0 3.809,1.112 3.809,3.655 v 4.48 H 67.71 v -4.744 c 0,-0.859 -0.276,-1.453 -1.211,-1.453 -1.068,0 -1.222,0.671 -1.222,1.453 V 1.849 H 62.679 Z M 78.08,-6.077 v 1.85 h -3.567 v 6.076 h -2.598 v -7.926 z m -0.33,5.846 h 2.333 v -5.846 h 2.598 v 5.846 h 2.334 v 2.08 H 77.75 Z m 12.164,0.352 c 1.145,0.033 1.585,-1.112 1.585,-2.191 0,-1.31 -0.44,-2.278 -1.563,-2.278 -1.244,0 -1.552,1.266 -1.552,2.278 0,1.002 0.352,2.191 1.53,2.191 m 0.022,1.938 c -2.466,0 -4.15,-1.619 -4.15,-4.107 0,-2.697 1.662,-4.238 4.15,-4.238 2.345,0 4.161,1.519 4.161,4.216 0,2.092 -1.332,4.129 -4.161,4.129 m 11.956,-2.51 c -0.188,1.387 -1.189,2.51 -3.391,2.51 -1.982,0 -3.435,-0.848 -3.435,-2.532 0,-3.028 4.558,-2.202 4.558,-3.402 0,-0.374 -0.43,-0.584 -1.079,-0.584 -0.253,0 -0.529,0.066 -0.738,0.199 -0.22,0.132 -0.374,0.341 -0.429,0.627 H 94.89 c 0.055,-1.431 1.42,-2.653 3.512,-2.653 2.179,0 3.71,0.892 3.71,2.73 0,2.884 -4.558,2.147 -4.558,3.336 0,0.286 0.253,0.451 0.826,0.451 0.253,0 0.484,-0.044 0.671,-0.143 0.187,-0.099 0.331,-0.264 0.375,-0.539 z"
       style="display:inline;fill:#fffefe;fill-opacity:1;fill-rule:nonzero;stroke:none"
       transform="matrix(0.35277776,0,0,-0.35277776,97.746507,130.83704)"
       clip-path="url(#clipPath639)"
       inkscape:export-filename="LogoINEACDMX.svg"
       inkscape:export-xdpi="300"
       inkscape:export-ydpi="300" />
    <path
       id="path640"
       d="M 0,0 V 1.849 H -3.567 V 7.926 H -6.165 V 0 Z m 5.438,2.697 h -1.64 l 0.804,2.84 z M 3.005,0 3.303,1.046 H 5.89 L 6.198,0 H 8.785 L 5.945,7.926 H 3.303 L 0.462,0 Z m 17.02,0 v 1.849 h -4.018 v 1.244 h 3.269 v 1.85 h -3.269 v 1.134 h 3.864 V 7.926 H 13.409 V 0 Z m 3.809,6.077 h 0.495 c 1.387,0 1.927,-0.44 1.927,-2.092 0,-1.497 -0.661,-2.136 -1.872,-2.136 h -0.55 z M 24.648,0 c 2.543,0 4.206,1.145 4.206,4.128 0,2.609 -1.586,3.798 -4.14,3.798 H 21.236 V 0 Z m 5.208,3.457 c 0,-2.73 1.365,-3.666 3.82,-3.666 2.631,0 3.809,1.112 3.809,3.655 v 4.48 H 34.887 V 3.182 c 0,-0.859 -0.276,-1.454 -1.211,-1.454 -1.068,0 -1.222,0.672 -1.222,1.454 v 4.744 h -2.598 z m 16.579,1.442 c -0.209,2.037 -1.564,3.237 -3.985,3.237 -2.213,0 -3.953,-1.597 -3.953,-4.162 0,-2.576 1.586,-4.183 4.206,-4.183 2.091,0 3.556,1.233 3.787,3.28 H 43.991 C 43.892,2.312 43.495,1.728 42.659,1.728 c -1.321,0 -1.564,1.046 -1.564,2.158 0,1.53 0.551,2.312 1.465,2.312 0.814,0 1.332,-0.473 1.409,-1.299 z m 5.482,-2.202 h -1.64 l 0.803,2.84 z M 49.484,0 49.781,1.046 h 2.587 L 52.677,0 h 2.587 L 52.423,7.926 H 49.781 L 46.941,0 Z m 14.08,4.899 c -0.209,2.037 -1.563,3.237 -3.985,3.237 -2.213,0 -3.952,-1.597 -3.952,-4.162 0,-2.576 1.585,-4.183 4.205,-4.183 2.092,0 3.556,1.233 3.787,3.28 H 61.12 C 61.021,2.312 60.625,1.728 59.788,1.728 c -1.321,0 -1.563,1.046 -1.563,2.158 0,1.53 0.551,2.312 1.464,2.312 0.815,0 1.332,-0.473 1.409,-1.299 z m 3.82,3.027 H 64.786 V 0 h 2.598 z M 72.79,5.702 c 1.145,0.031 1.585,-1.023 1.585,-2.015 0,-1.206 -0.44,-2.097 -1.563,-2.097 -1.244,0 -1.553,1.165 -1.553,2.097 0,0.921 0.353,2.015 1.531,2.015 m 0.022,1.783 c -2.466,0 -4.151,-1.489 -4.151,-3.778 0,-2.481 1.663,-3.899 4.151,-3.899 2.344,0 4.161,1.397 4.161,3.879 0,1.924 -1.332,3.798 -4.161,3.798 m -1.101,0.476 h 1.508 l 1.893,1.499 h -2.3 z M 80.595,7.926 H 78.162 V 0 H 80.65 V 2.51 L 80.551,4.315 83.38,0 h 2.433 V 7.926 H 83.325 V 5.405 L 83.424,3.6 Z"
       style="display:inline;fill:#fffefe;fill-opacity:1;fill-rule:nonzero;stroke:none"
       transform="matrix(0.35277776,0,0,-0.35277776,99.047467,129.26949)"
       clip-path="url(#clipPath641)" />
    <path
       id="path642"
       d="m 0,0 h -2.433 v -7.926 h 2.488 v 2.51 l -0.099,1.805 2.829,-4.315 H 5.218 V 0 H 2.73 V -2.521 L 2.829,-4.326 Z M 11.075,-5.229 H 9.434 l 0.804,2.84 z m -2.433,-2.697 0.297,1.045 h 2.587 l 0.308,-1.045 h 2.587 L 11.581,0 H 8.939 l -2.84,-7.926 z m 14.08,4.899 c -0.209,2.036 -1.563,3.236 -3.985,3.236 -2.213,0 -3.952,-1.596 -3.952,-4.161 0,-2.576 1.585,-4.184 4.205,-4.184 2.092,0 3.556,1.233 3.787,3.281 h -2.499 c -0.099,-0.759 -0.495,-1.343 -1.332,-1.343 -1.321,0 -1.563,1.046 -1.563,2.158 0,1.53 0.55,2.312 1.464,2.312 0.815,0 1.332,-0.474 1.409,-1.299 z M 26.542,0 h -2.598 v -7.926 h 2.598 z m 5.405,-1.728 c 1.145,0.033 1.586,-1.112 1.586,-2.191 0,-1.31 -0.441,-2.279 -1.564,-2.279 -1.244,0 -1.552,1.266 -1.552,2.279 0,1.002 0.352,2.191 1.53,2.191 m 0.022,1.937 c -2.466,0 -4.15,-1.618 -4.15,-4.106 0,-2.697 1.662,-4.239 4.15,-4.239 2.345,0 4.162,1.52 4.162,4.217 0,2.092 -1.332,4.128 -4.162,4.128 M 39.753,0 H 37.32 v -7.926 h 2.488 v 2.51 l -0.1,1.805 2.83,-4.315 h 2.433 V 0 h -2.488 v -2.521 l 0.099,-1.805 z m 11.074,-5.229 h -1.64 l 0.804,2.84 z m -2.433,-2.697 0.298,1.045 h 2.587 l 0.308,-1.045 h 2.587 L 51.334,0 h -2.642 l -2.841,-7.926 z m 12.903,0 v 1.849 H 57.73 V 0 h -2.598 v -7.926 z m 7.232,4.315 v 1.762 h 0.738 c 0.55,0 1.387,-0.1 1.387,-0.837 0,-0.683 -0.44,-0.925 -1.046,-0.925 z m 0,-4.315 v 2.466 h 1.31 c 2.279,0 3.292,1.078 3.292,2.785 0,1.629 -1.101,2.675 -3.38,2.675 h -3.82 v -7.926 z m 9.005,2.697 h -1.64 l 0.804,2.84 z m -2.433,-2.697 0.298,1.045 h 2.587 l 0.308,-1.045 h 2.587 L 78.041,0 h -2.642 l -2.841,-7.926 z m 9.171,6.077 h 1.211 c 0.605,0 1.046,-0.265 1.046,-0.826 0,-0.551 -0.43,-0.749 -1.233,-0.749 h -1.024 z m 0.792,-3.314 c 1.211,0 1.387,-0.341 1.387,-1.376 0,-0.705 0.067,-1.211 0.133,-1.387 h 2.631 v 0.242 c -0.309,0 -0.276,0.352 -0.276,1.387 0,1.596 -0.506,1.794 -1.343,2.103 0.925,0.253 1.332,1.023 1.332,1.937 0,1.541 -0.869,2.257 -3.511,2.257 h -3.743 v -7.926 h 2.598 v 2.763 z m 9.6,-0.066 h -1.64 l 0.803,2.84 z m -2.433,-2.697 0.297,1.045 h 2.587 l 0.309,-1.045 h 2.587 L 95.17,0 h -2.642 l -2.84,-7.926 z"
       style="display:inline;fill:#fffefe;fill-opacity:1;fill-rule:nonzero;stroke:none"
       transform="matrix(0.35277776,0,0,-0.35277776,97.703777,122.76185)"
       clip-path="url(#clipPath643)" />
    <path
       id="path644"
       d="m 763.359,118.559 h -2.598 v -7.926 h 2.598 z m 4.04,0 h -2.433 v -7.926 h 2.488 v 2.51 l -0.099,1.805 2.829,-4.315 h 2.433 v 7.926 h -2.488 v -2.521 l 0.099,-1.805 z m 13.342,-2.301 c -0.187,1.388 -1.189,2.51 -3.39,2.51 -1.982,0 -3.435,-0.847 -3.435,-2.532 0,-3.027 4.557,-2.201 4.557,-3.401 0,-0.375 -0.429,-0.584 -1.078,-0.584 -0.254,0 -0.529,0.066 -0.738,0.198 -0.22,0.133 -0.374,0.342 -0.429,0.628 h -2.488 c 0.055,-1.431 1.42,-2.653 3.511,-2.653 2.18,0 3.71,0.892 3.71,2.73 0,2.884 -4.557,2.147 -4.557,3.336 0,0.286 0.253,0.451 0.825,0.451 0.254,0 0.485,-0.044 0.672,-0.143 0.187,-0.099 0.33,-0.264 0.374,-0.54 z m 0.925,0.221 H 784 v -5.846 h 2.598 v 5.846 h 2.334 v 2.08 h -7.266 z m 11.041,2.08 h -2.598 v -7.926 h 2.598 z m 1.189,-2.08 h 2.334 v -5.846 h 2.598 v 5.846 h 2.334 v 2.08 h -7.266 z m 8.378,-2.389 c 0,-2.73 1.365,-3.666 3.82,-3.666 2.631,0 3.809,1.112 3.809,3.655 v 4.48 h -2.598 v -4.744 c 0,-0.859 -0.275,-1.454 -1.211,-1.454 -1.068,0 -1.222,0.672 -1.222,1.454 v 4.744 h -2.598 z m 8.741,2.389 h 2.334 v -5.846 h 2.598 v 5.846 h 2.334 v 2.08 h -7.266 z m 12.164,0.352 c 1.145,0.033 1.586,-1.112 1.586,-2.191 0,-1.31 -0.441,-2.279 -1.564,-2.279 -1.244,0 -1.552,1.266 -1.552,2.279 0,1.002 0.352,2.191 1.53,2.191 m 0.022,1.937 c -2.466,0 -4.15,-1.618 -4.15,-4.106 0,-2.697 1.662,-4.238 4.15,-4.238 2.345,0 4.162,1.519 4.162,4.216 0,2.092 -1.332,4.128 -4.162,4.128"
       style="display:inline;fill:#fffefe;fill-opacity:1;fill-rule:nonzero;stroke:none"
       transform="matrix(0.35277776,0,0,-0.35277776,-171.50669,160.87569)"
       clip-path="url(#clipPath645)" />
    <path
       id="path646"
       d="m 0,0 c 6.008,0 10.879,4.871 10.879,10.879 0,6.009 -4.871,10.88 -10.879,10.88 -6.008,0 -10.879,-4.871 -10.879,-10.88 C -10.879,4.871 -6.008,0 0,0"
       style="display:inline;fill:#fffefe;fill-opacity:1;fill-rule:nonzero;stroke:none"
       transform="matrix(0.35277776,0,0,-0.35277776,87.179247,123.12438)"
       clip-path="url(#clipPath647)" />
    <path
       id="path648"
       d="M 0,0 C 3.127,0 5.663,2.535 5.663,5.663 5.663,8.79 3.127,11.325 0,11.325 -3.127,11.325 -5.663,8.79 -5.663,5.663 -5.663,2.535 -3.127,0 0,0"
       style="display:inline;fill:#fffefe;fill-opacity:1;fill-rule:nonzero;stroke:none"
       transform="matrix(0.35277776,0,0,-0.35277776,80.893557,129.75169)"
       clip-path="url(#clipPath649)" />
    <path
       id="path650"
       d="M 0,0 C 3.127,0 5.663,2.535 5.663,5.663 5.663,8.79 3.127,11.325 0,11.325 -3.127,11.325 -5.663,8.79 -5.663,5.663 -5.663,2.535 -3.127,0 0,0"
       style="display:inline;fill:#fffefe;fill-opacity:1;fill-rule:nonzero;stroke:none"
       transform="matrix(0.35277776,0,0,-0.35277776,92.935697,129.75169)"
       clip-path="url(#clipPath651)" />
    <path
       id="path652"
       d="m 0,0 c 0,4.255 3.449,7.705 7.705,7.705 v 7.389 L -8.613,10.063 -24.931,15.094 V 7.705 c 4.256,0 7.705,-3.45 7.705,-7.705 0,-4.255 -3.449,-7.705 -7.705,-7.705 v -7.389 l 16.318,-5.032 16.318,5.032 v 7.389 C 3.449,-7.705 0,-4.255 0,0"
       style="display:inline;fill:#fffefe;fill-opacity:1;fill-rule:nonzero;stroke:none"
       transform="matrix(0.35277776,0,0,-0.35277776,90.217687,127.75401)"
       clip-path="url(#clipPath653)" />
    <path
       style="font-size:16px;font-family:'Helvetica LT Std';-inkscape-font-specification:'Helvetica LT Std';white-space:pre;fill:#fffefe;stroke-width:1.8;stroke-linejoin:bevel"
       d="m 612.11587,1001.5871 c -0.12799,-1.69597 -1.52,-4.06397 -4.95999,-4.06397 -2.96001,0 -5.28001,2.048 -5.28001,6.06397 0,3.968 2.192,6.032 5.248,6.032 2.88,0 4.51201,-1.744 4.992,-4.24 h -2.4 c -0.288,1.408 -1.216,2.16 -2.544,2.16 -2.032,0 -2.84799,-1.856 -2.84799,-3.92 0,-3.248 1.69599,-4.01597 2.84799,-4.01597 1.98401,0 2.352,1.29597 2.544,1.98397 z m 1.71201,-0.784 v 8.512 h 2.24 v -8.512 z m 2.24,-3.08797 h -2.24 v 2.08 h 2.24 z m 9.824,3.08797 h -2.24 v 4.912 c 0,1.52 -0.992,1.936 -1.72801,1.936 -0.688,0 -1.45599,-0.256 -1.45599,-1.568 v -5.28 h -2.24 v 5.6 c 0,2.176 1.216,3.136 2.89599,3.136 1.184,0 2.08001,-0.512 2.592,-1.424 h 0.032 v 1.2 h 2.144 z m 9.872,-2.97597 h -2.24 v 4.07997 h -0.032 c -0.352,-0.544 -1.024,-1.328 -2.464,-1.328 -1.872,0 -3.536,1.44 -3.536,4.384 0,2.336 1.056,4.576 3.584,4.576 0.928,0 1.92,-0.336 2.464,-1.296 h 0.032 v 1.072 h 2.192 z m -5.968,7.29597 c 0,-1.344 0.48,-2.608 1.904,-2.608 1.536,0 1.92,1.376 1.92,2.736 0,1.264 -0.56,2.448 -1.984,2.448 -1.44,0 -1.84,-1.568 -1.84,-2.576 z m 14.864,-2.08 c 0,-2.096 -2.192,-2.464 -3.392,-2.464 -1.744,0 -3.552,0.368 -3.808,2.976 h 2.16 c 0.064,-0.496 0.256,-1.184 1.376,-1.184 0.576,0 1.472,0.048 1.472,0.992 0,0.48 -0.432,0.624 -0.784,0.672 l -2.016,0.304 c -1.424,0.208 -2.48,1.056 -2.48,2.72 0,1.76 1.312,2.48 2.592,2.48 1.52,0 2.24,-0.704 2.752,-1.232 0.048,0.48 0.08,0.608 0.208,1.008 h 2.416 v -0.336 c -0.272,-0.096 -0.496,-0.32 -0.496,-1.328 z m -2.192,3.216 c 0,1.04 -1.008,1.68 -2,1.68 -0.432,0 -1.04,-0.24 -1.04,-1.024 0,-0.928 0.688,-1.136 1.52,-1.28 0.928,-0.144 1.296,-0.288 1.52,-0.464 z m 11.96799,-8.43197 h -2.24 v 4.07997 h -0.032 c -0.352,-0.544 -1.024,-1.328 -2.464,-1.328 -1.872,0 -3.536,1.44 -3.536,4.384 0,2.336 1.056,4.576 3.584,4.576 0.928,0 1.92,-0.336 2.464,-1.296 h 0.032 v 1.072 h 2.192 z m -5.968,7.29597 c 0,-1.344 0.48,-2.608 1.904,-2.608 1.536,0 1.92,1.376 1.92,2.736 0,1.264 -0.56,2.448 -1.984,2.448 -1.44,0 -1.84,-1.568 -1.84,-2.576 z m 20.192,-7.29597 h -2.24 v 4.07997 h -0.032 c -0.352,-0.544 -1.024,-1.328 -2.464,-1.328 -1.872,0 -3.536,1.44 -3.536,4.384 0,2.336 1.056,4.576 3.584,4.576 0.928,0 1.92,-0.336 2.464,-1.296 h 0.032 v 1.072 h 2.192 z m -5.968,7.29597 c 0,-1.344 0.48,-2.608 1.904,-2.608 1.536,0 1.92,1.376 1.92,2.736 0,1.264 -0.56,2.448 -1.984,2.448 -1.44,0 -1.84,-1.568 -1.84,-2.576 z m 12.976,1.696 c -0.176,0.608 -0.816,0.928 -1.44,0.928 -1.808,0 -1.936,-1.44 -2,-2.08 h 5.84 v -0.4 c 0,-3.888 -2.32,-4.688 -4,-4.688 -3.728,0 -4.08,3.28 -4.08,4.304 0,3.504 1.84,4.656 4.24,4.656 1.456,0 3.152,-0.672 3.744,-2.72 z m -3.376,-2.608 c 0.128,-1.12 0.688,-1.792 1.744,-1.792 0.72,0 1.6,0.416 1.728,1.792 z m 22.912,-6.38397 h -3.472 l -2.048,9.05597 h -0.032 l -2.08,-9.05597 h -3.504 v 11.48797 h 2.24 v -9.59997 h 0.032 l 2.096,9.59997 h 2.352 l 2.144,-9.59997 h 0.032 v 9.59997 h 2.24 z m 7.136,8.99197 c -0.176,0.608 -0.816,0.928 -1.44,0.928 -1.808,0 -1.936,-1.44 -2,-2.08 h 5.84 v -0.4 c 0,-3.888 -2.32,-4.688 -4,-4.688 -3.728,0 -4.08,3.28 -4.08,4.304 0,3.504 1.84,4.656 4.24,4.656 1.456,0 3.152,-0.672 3.744,-2.72 z m -3.376,-2.608 c 0.128,-1.12 0.688,-1.792 1.744,-1.792 0.72,0 1.6,0.416 1.728,1.792 z m 4.816,-6.89597 h -2.464 l -1.504,2.336 h 1.616 z m 6.92801,7.66397 2.8,-4.176 h -2.64 l -1.408,2.48 -1.44,-2.48 h -2.72 l 2.784,4.176 -2.896,4.336 h 2.704 l 1.472,-2.56 1.472,2.56 h 2.768 z m 4.23999,-4.176 v 8.512 h 2.24 v -8.512 z m 2.24,-3.08797 h -2.24 v 2.08 h 2.24 z m 7.2,8.49597 c 0,0.4 -0.384,1.488 -1.52,1.488 -1.696,0 -1.728,-1.84 -1.728,-2.768 0,-1.056 0.368,-2.464 1.776,-2.464 h 0.112 c 0.96,0 1.28,0.832 1.376,1.376 h 2.272 c -0.208,-2.656 -2.416,-3.264 -3.76,-3.264 -2.88,0 -4.08,1.968 -4.08,4.72 0,1.792 0.736,4.24 3.936,4.24 3.12,0 3.808,-2.448 3.888,-3.328 z m 12.048,-1.152 c 0,-3.072 -2.064,-4.48 -4.352,-4.48 -2.288,0 -4.352,1.408 -4.352,4.48 0,3.072 2.064,4.48 4.352,4.48 2.288,0 4.352,-1.408 4.352,-4.48 z m -2.304,0 c 0,1.088 -0.32,2.592 -2.048,2.592 -1.728,0 -2.048,-1.504 -2.048,-2.592 0,-1.088 0.32,-2.592 2.048,-2.592 1.728,0 2.048,1.504 2.048,2.592 z"
       id="text663"
       transform="matrix(0.26458333,0,0,0.26458333,-72.047489,-127.81914)"
       aria-label="Ciudad de México" />
  </g>
</svg>
